<?xml version="1.0" standalone="no"?><!DOCTYPE svg PUBLIC "-//W3C//DTD SVG 1.1//EN" "http://www.w3.org/Graphics/SVG/1.1/DTD/svg11.dtd"><svg t="1528601080486" class="icon" style="" viewBox="0 0 1024 1024" version="1.1" xmlns="http://www.w3.org/2000/svg" p-id="5341" xmlns:xlink="http://www.w3.org/1999/xlink" width="200" height="200"><defs><style type="text/css"></style></defs><path d="M530.125 534.733v241.152a48.845 48.845 0 0 0 48.64 48.64c26.624-9.216 79.053-27.853 129.638-50.176 13.107-5.837 26.01-13.005 51.2-27.341a117.453 117.453 0 0 0 40.96-31.437 89.6 89.6 0 0 0 13.21-24.883v-430.08a48.845 48.845 0 0 0-48.64-48.64 442.819 442.819 0 0 0-42.599 9.42 230.502 230.502 0 0 1-192.41 313.345zM252.928 747.008c25.702 14.336 38.605 21.606 51.2 27.34 50.586 22.324 103.014 40.96 129.638 50.177a48.845 48.845 0 0 0 48.64-48.64V534.323a230.605 230.605 0 0 1-189.44-312.217 454.963 454.963 0 0 0-46.284-10.24 48.845 48.845 0 0 0-48.64 48.64v430.08a89.6 89.6 0 0 0 13.21 24.883 117.453 117.453 0 0 0 41.676 31.539z" p-id="5342"></path><path d="M839.68 269.21a47.923 47.923 0 0 1 0.922 8.601v430.08a89.702 89.702 0 0 1-13.21 24.883 117.35 117.35 0 0 1-40.96 31.437c-24.78 13.824-37.58 20.992-50.278 26.727 13.516 0 53.657 0.819 92.979-1.844a61.44 61.44 0 0 0 35.533-12.185 58.266 58.266 0 0 0 18.739-29.389V317.44a48.64 48.64 0 0 0-43.725-48.23zM152.371 777.114a61.44 61.44 0 0 0 35.533 12.185c39.322 2.663 79.462 2.15 92.98 1.843-12.698-5.734-25.498-12.902-50.28-26.726a117.35 117.35 0 0 1-40.96-31.437 89.6 89.6 0 0 1-13.209-24.883v-430.08a47.923 47.923 0 0 1 0.922-8.602 48.64 48.64 0 0 0-43.725 48.026v430.08a58.266 58.266 0 0 0 18.74 29.594zM544.358 347.648a204.8 204.8 0 0 0-14.336 34.406v152.679a230.502 230.502 0 0 0 193.23-313.651c-55.604 15.052-138.036 49.152-178.894 126.566z" p-id="5343"></path><path d="M544.358 347.648a204.8 204.8 0 0 0-14.336 34.406v152.679a230.502 230.502 0 0 0 193.23-313.651c-55.604 15.052-138.036 49.152-178.894 126.566z" p-id="5344"></path><path d="M482.918 534.323V382.054a204.8 204.8 0 0 0-14.336-34.406c-39.936-75.674-119.705-109.978-175.206-125.542a230.605 230.605 0 0 0 189.44 312.217z" p-id="5345"></path><path d="M482.918 534.323V382.054a204.8 204.8 0 0 0-14.336-34.406c-39.936-75.674-119.705-109.978-175.206-125.542a230.605 230.605 0 0 0 189.44 312.217z" p-id="5346"></path></svg>