<?xml version="1.0" standalone="no"?><!DOCTYPE svg PUBLIC "-//W3C//DTD SVG 1.1//EN" "http://www.w3.org/Graphics/SVG/1.1/DTD/svg11.dtd"><svg t="1528601158511" class="icon" style="" viewBox="0 0 1024 1024" version="1.1" xmlns="http://www.w3.org/2000/svg" p-id="5914" xmlns:xlink="http://www.w3.org/1999/xlink" width="200" height="200"><defs><style type="text/css"></style></defs><path d="M512 1024C229.248 1024 0 794.752 0 512S229.248 0 512 0s512 229.248 512 512-229.248 512-512 512z m251.733333-529.664L612.821333 343.466667a42.666667 42.666667 0 1 0-60.330666 60.330666l120.661333 120.704-120.661333 120.661334a42.666667 42.666667 0 0 0 60.330666 60.373333L763.690667 554.666667a42.666667 42.666667 0 0 0 0-60.330667z m-241.365333 0L371.498667 343.466667a42.666667 42.666667 0 0 0-60.330667 60.330666l120.661333 120.704-120.661333 120.661334a42.666667 42.666667 0 0 0 60.330667 60.373333L522.368 554.666667a42.666667 42.666667 0 0 0 0-60.330667z" p-id="5915"></path></svg>